<svg width="73" height="27" viewBox="0 0 73 27" fill="none" xmlns="http://www.w3.org/2000/svg">
<path d="M7.62891 16.0859C7.87109 16.0859 8.07812 16 8.25 15.8281C8.42969 15.6562 8.58203 15.4414 8.70703 15.1836C8.83984 14.9258 8.94531 14.6484 9.02344 14.3516C9.10938 14.0469 9.17969 13.7617 9.23438 13.4961C9.28906 13.2461 9.36719 13.0664 9.46875 12.957C9.57812 12.8398 9.69531 12.7812 9.82031 12.7812C9.91406 12.7812 10.0078 12.8125 10.1016 12.875C10.2031 12.9297 10.293 13.0039 10.3711 13.0977C10.457 13.1914 10.5234 13.2969 10.5703 13.4141C10.625 13.5312 10.6523 13.6484 10.6523 13.7656C10.6523 13.7812 10.6523 13.8008 10.6523 13.8242C10.6523 13.8477 10.6445 13.8828 10.6289 13.9297C10.5273 14.3281 10.3867 14.7461 10.207 15.1836C10.0352 15.6211 9.8125 16.0234 9.53906 16.3906C9.26562 16.7578 8.93359 17.0625 8.54297 17.3047C8.16016 17.5469 7.71094 17.668 7.19531 17.668C6.77344 17.668 6.40625 17.5781 6.09375 17.3984C5.78125 17.2188 5.53516 16.9805 5.35547 16.6836C5.11328 16.957 4.82031 17.1875 4.47656 17.375C4.14062 17.5703 3.74609 17.668 3.29297 17.668C2.82422 17.668 2.41016 17.5742 2.05078 17.3867C1.69922 17.1992 1.40234 16.9453 1.16016 16.625C0.917969 16.2969 0.734375 15.9141 0.609375 15.4766C0.492188 15.0312 0.433594 14.5547 0.433594 14.0469C0.433594 13.0469 0.59375 12.1484 0.914062 11.3516C1.23438 10.5547 1.66016 9.87891 2.19141 9.32422C2.72266 8.76172 3.32812 8.33203 4.00781 8.03516C4.69531 7.73828 5.40625 7.58984 6.14062 7.58984C6.46875 7.58984 6.73438 7.67969 6.9375 7.85938C7.14062 8.03906 7.24219 8.28516 7.24219 8.59766C7.24219 8.80078 7.21875 8.94531 7.17188 9.03125C7.13281 9.10938 7.05469 9.14844 6.9375 9.14844C6.82812 9.14844 6.71484 9.14062 6.59766 9.125C6.48047 9.10938 6.35938 9.10156 6.23438 9.10156C5.78125 9.10156 5.32031 9.20312 4.85156 9.40625C4.38281 9.60156 3.95703 9.90625 3.57422 10.3203C3.19922 10.7266 2.89062 11.2461 2.64844 11.8789C2.40625 12.5039 2.28516 13.25 2.28516 14.1172C2.28516 14.75 2.40625 15.2383 2.64844 15.582C2.89062 15.918 3.22266 16.0859 3.64453 16.0859C3.97266 16.0859 4.24609 15.9648 4.46484 15.7227C4.68359 15.4727 4.85938 15.1797 4.99219 14.8438V11.1406C4.99219 11.0234 4.98438 10.9258 4.96875 10.8477C4.96094 10.7695 4.94922 10.7031 4.93359 10.6484C4.92578 10.5938 4.91797 10.5469 4.91016 10.5078C4.90234 10.4609 4.89844 10.418 4.89844 10.3789C4.89844 10.2539 4.95703 10.1562 5.07422 10.0859C5.19922 10.0078 5.34766 9.96875 5.51953 9.96875C5.91797 9.96875 6.23438 10.0742 6.46875 10.2852C6.70312 10.4883 6.82031 10.7344 6.82031 11.0234V14.9844C6.82031 15.1172 6.83594 15.25 6.86719 15.3828C6.89844 15.5078 6.94531 15.625 7.00781 15.7344C7.07031 15.8359 7.15234 15.9219 7.25391 15.9922C7.36328 16.0547 7.48828 16.0859 7.62891 16.0859ZM10.7109 13.707C10.6484 13.957 10.5312 14.1133 10.3594 14.1758C10.1875 14.2305 10.0156 14.2227 9.84375 14.1523C9.67969 14.082 9.53906 13.9609 9.42188 13.7891C9.3125 13.6172 9.28125 13.4297 9.32812 13.2266C9.44531 12.6953 9.61328 12.1094 9.83203 11.4688C10.0586 10.8203 10.2812 10.1758 10.5 9.53516C10.3828 9.35547 10.2891 9.17578 10.2188 8.99609C10.1484 8.80859 10.1133 8.61328 10.1133 8.41016C10.1133 8.20703 10.1875 7.99609 10.3359 7.77734C10.4922 7.55078 10.6758 7.34375 10.8867 7.15625C11.1055 6.96875 11.3281 6.81641 11.5547 6.69922C11.7891 6.57422 11.9883 6.51172 12.1523 6.51172C12.4414 6.51172 12.6562 6.60938 12.7969 6.80469C12.9453 7 13.0195 7.26172 13.0195 7.58984C13.0195 7.76953 12.9883 7.94922 12.9258 8.12891C12.8711 8.30078 12.8086 8.46484 12.7383 8.62109C12.668 8.76953 12.6016 8.89844 12.5391 9.00781C12.4844 9.11719 12.4531 9.1875 12.4453 9.21875C12.7266 9.71875 13.0195 10.1602 13.3242 10.543C13.6289 10.9258 13.9062 11.3047 14.1562 11.6797C14.4141 12.0547 14.625 12.4531 14.7891 12.875C14.9531 13.2969 15.0352 13.793 15.0352 14.3633C15.0352 14.5039 15.0234 14.6484 15 14.7969C14.9844 14.9453 14.957 15.0859 14.918 15.2188C15.1992 15.1641 15.4453 15.0781 15.6562 14.9609C15.875 14.8438 16.0625 14.7109 16.2188 14.5625C16.3828 14.4062 16.5156 14.2383 16.6172 14.0586C16.7266 13.8789 16.8164 13.6914 16.8867 13.4961C16.9727 13.2695 17.0586 13.1055 17.1445 13.0039C17.2305 12.9023 17.3281 12.8516 17.4375 12.8516C17.5391 12.8516 17.6406 12.8867 17.7422 12.957C17.8516 13.0195 17.9453 13.1016 18.0234 13.2031C18.1094 13.3047 18.1758 13.4102 18.2227 13.5195C18.2773 13.6289 18.3047 13.7266 18.3047 13.8125C18.3047 13.9297 18.2734 14.0703 18.2109 14.2344C18.1484 14.3984 18.0625 14.5664 17.9531 14.7383C17.8516 14.9102 17.7344 15.0781 17.6016 15.2422C17.4688 15.3984 17.332 15.5352 17.1914 15.6523C16.8164 15.957 16.375 16.2148 15.8672 16.4258C15.3594 16.6289 14.7305 16.7578 13.9805 16.8125C13.6914 17.0625 13.3477 17.2656 12.9492 17.4219C12.5586 17.5859 12.1172 17.668 11.625 17.668C11.375 17.668 11.1172 17.6367 10.8516 17.5742C10.5938 17.5117 10.3438 17.4297 10.1016 17.3281C9.86719 17.2344 9.65234 17.1289 9.45703 17.0117C9.26172 16.8945 9.10547 16.7773 8.98828 16.6602C8.69141 16.3789 8.5 16.0977 8.41406 15.8164C8.32812 15.5273 8.30859 15.2695 8.35547 15.043C8.39453 14.8164 8.47656 14.6328 8.60156 14.4922C8.72656 14.3438 8.85547 14.2695 8.98828 14.2695C9.06641 14.2695 9.1875 14.3047 9.35156 14.375C9.52344 14.4375 9.71875 14.5234 9.9375 14.6328C10.1562 14.7344 10.3945 14.8438 10.6523 14.9609C10.9102 15.0781 11.168 15.1914 11.4258 15.3008C11.6836 15.4023 11.9336 15.4883 12.1758 15.5586C12.4258 15.6211 12.6523 15.6523 12.8555 15.6523C12.9883 15.4961 13.1094 15.2891 13.2188 15.0312C13.3281 14.7734 13.3828 14.4922 13.3828 14.1875C13.3828 13.8125 13.332 13.4648 13.2305 13.1445C13.1289 12.8242 12.9961 12.5273 12.832 12.2539C12.668 11.9805 12.4805 11.7266 12.2695 11.4922C12.0664 11.25 11.8594 11.0234 11.6484 10.8125C11.4609 11.2734 11.2969 11.7305 11.1562 12.1836C11.0156 12.6289 10.8672 13.1367 10.7109 13.707ZM18.2812 5.45703C18.0859 5.45703 17.8984 5.41797 17.7188 5.33984C17.5469 5.26172 17.3945 5.15625 17.2617 5.02344C17.1367 4.89062 17.0352 4.73828 16.957 4.56641C16.8789 4.38672 16.8398 4.19531 16.8398 3.99219C16.8398 3.78125 16.8789 3.58594 16.957 3.40625C17.0352 3.22656 17.1367 3.07422 17.2617 2.94922C17.3945 2.81641 17.5469 2.71484 17.7188 2.64453C17.8984 2.56641 18.0859 2.52734 18.2812 2.52734C18.4922 2.52734 18.6875 2.56641 18.8672 2.64453C19.0469 2.71484 19.1992 2.81641 19.3242 2.94922C19.457 3.07422 19.5586 3.22656 19.6289 3.40625C19.707 3.58594 19.7461 3.78125 19.7461 3.99219C19.7461 4.19531 19.707 4.38672 19.6289 4.56641C19.5586 4.73828 19.457 4.89062 19.3242 5.02344C19.1992 5.15625 19.0469 5.26172 18.8672 5.33984C18.6875 5.41797 18.4922 5.45703 18.2812 5.45703ZM18.832 14.9844C18.832 15.0391 18.8359 15.1289 18.8438 15.2539C18.8516 15.3711 18.875 15.4922 18.9141 15.6172C18.9531 15.7422 19.0156 15.8516 19.1016 15.9453C19.1875 16.0391 19.3086 16.0859 19.4648 16.0859C19.6992 16.0859 19.9023 16 20.0742 15.8281C20.2539 15.6562 20.4062 15.4414 20.5312 15.1836C20.6641 14.9258 20.7734 14.6484 20.8594 14.3516C20.9453 14.0469 21.0156 13.7617 21.0703 13.4961C21.1172 13.2539 21.1875 13.0781 21.2812 12.9688C21.3828 12.8594 21.4883 12.8008 21.5977 12.793C21.7148 12.7773 21.8281 12.8047 21.9375 12.875C22.0547 12.9453 22.1562 13.0391 22.2422 13.1562C22.3359 13.2656 22.4023 13.3906 22.4414 13.5312C22.4883 13.6719 22.4961 13.8047 22.4648 13.9297C22.3555 14.3281 22.2109 14.7461 22.0312 15.1836C21.8594 15.6211 21.6367 16.0234 21.3633 16.3906C21.0898 16.7578 20.7617 17.0625 20.3789 17.3047C19.9961 17.5469 19.5469 17.668 19.0312 17.668C18.7109 17.668 18.4258 17.6055 18.1758 17.4805C17.9258 17.3633 17.7148 17.2031 17.543 17C17.3711 16.7969 17.2383 16.5586 17.1445 16.2852C17.0586 16.0117 17.0156 15.7227 17.0156 15.418V9.00781C17.0156 8.78125 16.9961 8.61719 16.957 8.51562C16.9258 8.41406 16.9102 8.32031 16.9102 8.23438C16.9102 8.11719 16.9727 8.02344 17.0977 7.95312C17.2227 7.875 17.3711 7.83594 17.543 7.83594C17.9414 7.83594 18.2539 7.94141 18.4805 8.15234C18.7148 8.35547 18.832 8.60156 18.832 8.89062V14.9844ZM18.9961 5.71484C19.1758 5.73047 19.375 5.74219 19.5938 5.75C19.7812 5.76562 20.0078 5.77734 20.2734 5.78516C20.5391 5.78516 20.8359 5.78906 21.1641 5.79688V1.73047C21.1641 1.55859 21.1484 1.42188 21.1172 1.32031C21.0938 1.21875 21.0664 1.14063 21.0352 1.08594C21.0117 1.02344 20.9844 0.976563 20.9531 0.945312C20.9297 0.90625 20.918 0.867187 20.918 0.828125C20.918 0.78125 20.9414 0.742188 20.9883 0.710938C21.0352 0.679687 21.0977 0.652344 21.1758 0.628906C21.2539 0.605469 21.3359 0.589844 21.4219 0.582031C21.5156 0.566406 21.6055 0.558594 21.6914 0.558594C22.0898 0.558594 22.4023 0.664062 22.6289 0.875C22.8633 1.07812 22.9805 1.32422 22.9805 1.61328V5.82031C23.7148 5.82031 24.4883 5.8125 25.3008 5.79688C26.1211 5.78125 26.9414 5.75391 27.7617 5.71484C27.8711 5.59766 27.957 5.55469 28.0195 5.58594C28.0898 5.61719 28.1328 5.69141 28.1484 5.80859C28.1719 5.92578 28.1758 6.07031 28.1602 6.24219C28.1445 6.41406 28.1133 6.58203 28.0664 6.74609C28.0195 6.90234 27.9531 7.03906 27.8672 7.15625C27.7891 7.27344 27.6992 7.33203 27.5977 7.33203C26.6367 7.35547 25.7852 7.37109 25.043 7.37891C24.3086 7.37891 23.6211 7.37891 22.9805 7.37891V14.9844C22.9805 15.375 23.0547 15.6562 23.2031 15.8281C23.3516 16 23.5508 16.0859 23.8008 16.0859C24.043 16.0859 24.25 16 24.4219 15.8281C24.6016 15.6562 24.7539 15.4414 24.8789 15.1836C25.0117 14.9258 25.1172 14.6484 25.1953 14.3516C25.2812 14.0469 25.3516 13.7617 25.4062 13.4961C25.4531 13.2461 25.5312 13.0664 25.6406 12.957C25.75 12.8398 25.8633 12.7812 25.9805 12.7812C26.0742 12.7812 26.1719 12.8125 26.2734 12.875C26.375 12.9297 26.4648 13.0039 26.543 13.0977C26.6289 13.1914 26.6953 13.2969 26.7422 13.4141C26.7969 13.5312 26.8242 13.6484 26.8242 13.7656C26.8242 13.7812 26.8242 13.8008 26.8242 13.8242C26.8242 13.8477 26.8164 13.8828 26.8008 13.9297C26.6992 14.3281 26.5586 14.7461 26.3789 15.1836C26.207 15.6211 25.9805 16.0234 25.6992 16.3906C25.4258 16.7578 25.0977 17.0625 24.7148 17.3047C24.332 17.5469 23.8828 17.668 23.3672 17.668C23.0469 17.668 22.75 17.6172 22.4766 17.5156C22.2109 17.4219 21.9805 17.2656 21.7852 17.0469C21.5898 16.8359 21.4375 16.5625 21.3281 16.2266C21.2188 15.8906 21.1641 15.4844 21.1641 15.0078V7.37891C20.8984 7.37891 20.6602 7.37891 20.4492 7.37891C20.2461 7.37109 20.0742 7.36328 19.9336 7.35547C19.7695 7.34766 19.625 7.33984 19.5 7.33203C19.3125 7.33203 19.1484 7.25 19.0078 7.08594C18.8594 6.91406 18.7578 6.72656 18.7031 6.52344C18.6406 6.32031 18.6328 6.13672 18.6797 5.97266C18.7188 5.80078 18.8242 5.71484 18.9961 5.71484ZM34.043 13.4961C34.1133 13.2461 34.1953 13.0664 34.2891 12.957C34.3828 12.8398 34.4922 12.7812 34.6172 12.7812C34.7109 12.7812 34.8086 12.8125 34.9102 12.875C35.0117 12.9297 35.1016 13.0039 35.1797 13.0977C35.2656 13.1914 35.332 13.2969 35.3789 13.4141C35.4336 13.5312 35.4609 13.6484 35.4609 13.7656C35.4609 13.7812 35.4609 13.8125 35.4609 13.8594C35.4609 13.9062 35.4531 13.9531 35.4375 14C35.2344 14.6953 34.9961 15.3125 34.7227 15.8516C34.457 16.3828 34.168 16.8594 33.8555 17.2812C33.5508 17.7031 33.2344 18.0781 32.9062 18.4062C32.5781 18.7422 32.25 19.0508 31.9219 19.332V23.4805C31.9219 24.1133 31.8477 24.6445 31.6992 25.0742C31.5586 25.5117 31.3711 25.8633 31.1367 26.1289C30.9023 26.4023 30.6367 26.5977 30.3398 26.7148C30.043 26.832 29.7422 26.8906 29.4375 26.8906C29.1016 26.8906 28.793 26.8164 28.5117 26.668C28.2305 26.5273 27.9844 26.332 27.7734 26.082C27.5703 25.832 27.4102 25.5391 27.293 25.2031C27.1836 24.8672 27.1289 24.5078 27.1289 24.125C27.1289 23.5156 27.207 22.9766 27.3633 22.5078C27.5273 22.0391 27.7461 21.6094 28.0195 21.2188C28.293 20.8281 28.6094 20.4609 28.9688 20.1172C29.3281 19.7812 29.707 19.4375 30.1055 19.0859V16.0391C29.8164 16.5234 29.4805 16.918 29.0977 17.2227C28.7148 17.5352 28.2656 17.6914 27.75 17.6914C27.3516 17.6914 26.9922 17.6094 26.6719 17.4453C26.3594 17.2812 26.0938 17.0508 25.875 16.7539C25.6562 16.4492 25.4883 16.0859 25.3711 15.6641C25.2617 15.2344 25.207 14.7578 25.207 14.2344C25.207 13.6016 25.25 12.9648 25.3359 12.3242C25.4297 11.6836 25.5312 11.1055 25.6406 10.5898C25.7656 9.98828 25.9102 9.40625 26.0742 8.84375C26.1133 8.74219 26.1406 8.64062 26.1562 8.53906C26.1797 8.42969 26.2266 8.33203 26.2969 8.24609C26.3672 8.16016 26.4766 8.08984 26.625 8.03516C26.7812 7.98047 27.0195 7.95312 27.3398 7.95312C27.6367 7.95312 27.8281 8.00781 27.9141 8.11719C28 8.21875 28.0312 8.33984 28.0078 8.48047C27.9922 8.62109 27.9453 8.76562 27.8672 8.91406C27.7969 9.0625 27.75 9.18359 27.7266 9.27734C27.6172 9.72266 27.5195 10.1289 27.4336 10.4961C27.3477 10.8633 27.2734 11.2344 27.2109 11.6094C27.1562 11.9766 27.1133 12.3633 27.082 12.7695C27.0508 13.168 27.0352 13.6172 27.0352 14.1172C27.0352 14.7734 27.1289 15.2695 27.3164 15.6055C27.5117 15.9414 27.7852 16.1094 28.1367 16.1094C28.3789 16.1094 28.6016 16.0195 28.8047 15.8398C29.0156 15.6602 29.2031 15.4219 29.3672 15.125C29.5391 14.8203 29.6875 14.4766 29.8125 14.0938C29.9375 13.7031 30.0352 13.2969 30.1055 12.875V9.00781C30.1055 8.78125 30.0898 8.61719 30.0586 8.51562C30.0273 8.41406 30.0117 8.32031 30.0117 8.23438C30.0117 8.11719 30.0703 8.02344 30.1875 7.95312C30.3125 7.875 30.4609 7.83594 30.6328 7.83594C31.0312 7.83594 31.3438 7.94141 31.5703 8.15234C31.8047 8.35547 31.9219 8.60156 31.9219 8.89062V17.3164C32.3594 16.832 32.7617 16.2812 33.1289 15.6641C33.4961 15.0469 33.8008 14.3242 34.043 13.4961ZM29.4375 25.3789C29.625 25.3789 29.7656 25.3008 29.8594 25.1445C29.9531 24.9883 30.0156 24.8047 30.0469 24.5938C30.0859 24.3906 30.1055 24.1836 30.1055 23.9727C30.1055 23.7617 30.1055 23.5977 30.1055 23.4805V20.9141C29.7148 21.3047 29.3984 21.7461 29.1562 22.2383C28.9219 22.7305 28.8047 23.3359 28.8047 24.0547C28.8047 24.4297 28.8594 24.7422 28.9688 24.9922C29.0859 25.25 29.2422 25.3789 29.4375 25.3789ZM35.5898 24.125C35.5898 23.5156 35.668 22.9766 35.8242 22.5078C35.9883 22.0391 36.207 21.6094 36.4805 21.2188C36.7539 20.8281 37.0703 20.4609 37.4297 20.1172C37.7891 19.7812 38.168 19.4375 38.5664 19.0859V16.5664C38.3242 16.8086 38.0391 17.0117 37.7109 17.1758C37.3906 17.3477 37.0195 17.4336 36.5977 17.4336C36.1289 17.4336 35.7148 17.3398 35.3555 17.1523C35.0039 16.9648 34.707 16.7109 34.4648 16.3906C34.2227 16.0625 34.0391 15.6797 33.9141 15.2422C33.7969 14.7969 33.7383 14.3203 33.7383 13.8125C33.7383 12.8125 33.8984 11.9141 34.2188 11.1172C34.5391 10.3203 34.9648 9.64453 35.4961 9.08984C36.0273 8.52734 36.6328 8.09766 37.3125 7.80078C38 7.50391 38.7109 7.35547 39.4453 7.35547C39.7734 7.35547 40.0391 7.44531 40.2422 7.625C40.4453 7.79688 40.5469 8.04297 40.5469 8.36328C40.5469 8.56641 40.5234 8.71094 40.4766 8.79688C40.4375 8.875 40.3594 8.91406 40.2422 8.91406C40.1328 8.91406 40.0195 8.90625 39.9023 8.89062C39.7852 8.875 39.6641 8.86719 39.5391 8.86719C39.0859 8.86719 38.625 8.96875 38.1562 9.17188C37.6875 9.36719 37.2617 9.67188 36.8789 10.0859C36.5039 10.4922 36.1953 11.0117 35.9531 11.6445C35.7109 12.2695 35.5898 13.0156 35.5898 13.8828C35.5898 14.5078 35.7109 14.9922 35.9531 15.3359C36.1953 15.6797 36.5273 15.8516 36.9492 15.8516C37.1914 15.8516 37.4023 15.7812 37.582 15.6406C37.7617 15.4922 37.918 15.3086 38.0508 15.0898C38.1836 14.8711 38.2891 14.6328 38.3672 14.375C38.4531 14.1094 38.5195 13.8555 38.5664 13.6133V10.9062C38.5664 10.6797 38.5469 10.5156 38.5078 10.4141C38.4766 10.3125 38.4609 10.2188 38.4609 10.1328C38.4609 10.0156 38.5234 9.91797 38.6484 9.83984C38.7734 9.76172 38.9219 9.72266 39.0938 9.72266C39.4922 9.72266 39.8047 9.82812 40.0312 10.0391C40.2656 10.2422 40.3828 10.4922 40.3828 10.7891V17.3164C40.8203 16.832 41.2188 16.2812 41.5781 15.6641C41.9453 15.0469 42.25 14.3242 42.4922 13.4961C42.5703 13.2461 42.6562 13.0664 42.75 12.957C42.8438 12.8398 42.9531 12.7812 43.0781 12.7812C43.1719 12.7812 43.2656 12.8125 43.3594 12.875C43.4609 12.9297 43.5508 13.0039 43.6289 13.0977C43.7148 13.1914 43.7812 13.2969 43.8281 13.4141C43.8828 13.5312 43.9102 13.6484 43.9102 13.7656C43.9102 13.7812 43.9102 13.8125 43.9102 13.8594C43.9102 13.9062 43.9023 13.9531 43.8867 14C43.6836 14.6953 43.4453 15.3125 43.1719 15.8516C42.9062 16.3828 42.6211 16.8594 42.3164 17.2812C42.0117 17.7031 41.6953 18.0781 41.3672 18.4062C41.0391 18.7422 40.7109 19.0508 40.3828 19.332V23.4805C40.3828 24.1133 40.3086 24.6445 40.1602 25.0742C40.0195 25.5117 39.832 25.8633 39.5977 26.1289C39.3633 26.4023 39.0938 26.5977 38.7891 26.7148C38.4922 26.832 38.1914 26.8906 37.8867 26.8906C37.5508 26.8906 37.2422 26.8164 36.9609 26.668C36.6797 26.5273 36.4375 26.332 36.2344 26.082C36.0312 25.832 35.8711 25.5391 35.7539 25.2031C35.6445 24.8672 35.5898 24.5078 35.5898 24.125ZM37.8867 25.3789C38.082 25.3789 38.2266 25.3008 38.3203 25.1445C38.4141 24.9883 38.4766 24.8047 38.5078 24.5938C38.5469 24.3906 38.5664 24.1836 38.5664 23.9727C38.5664 23.7617 38.5664 23.5977 38.5664 23.4805V20.9141C38.1758 21.3047 37.8594 21.7461 37.6172 22.2383C37.3828 22.7305 37.2656 23.3359 37.2656 24.0547C37.2656 24.4297 37.3203 24.7422 37.4297 24.9922C37.5391 25.25 37.6914 25.3789 37.8867 25.3789ZM47.8359 17.668C47.5547 17.668 47.2656 17.625 46.9688 17.5391C46.6797 17.4531 46.4141 17.3047 46.1719 17.0938C45.9375 16.8828 45.7422 16.6055 45.5859 16.2617C45.4375 15.9102 45.3633 15.4688 45.3633 14.9375C45.3633 14.1641 45.4648 13.3477 45.668 12.4883C45.8789 11.6211 46.1797 10.668 46.5703 9.62891H44.7422H44.4727C44.4648 9.86328 44.4492 10.1602 44.4258 10.5195C44.4102 10.8789 44.3789 11.2617 44.332 11.668C44.2852 12.0742 44.2227 12.4844 44.1445 12.8984C44.0742 13.3125 43.9844 13.6953 43.875 14.0469C43.7969 14.2969 43.6719 14.4414 43.5 14.4805C43.3359 14.5195 43.1719 14.4922 43.0078 14.3984C42.8438 14.2969 42.7109 14.1523 42.6094 13.9648C42.5078 13.7773 42.4844 13.582 42.5391 13.3789C42.6016 13.1367 42.6562 12.8438 42.7031 12.5C42.75 12.1484 42.7852 11.7812 42.8086 11.3984C42.8398 11.0078 42.8633 10.6211 42.8789 10.2383C42.8945 9.84766 42.9062 9.5 42.9141 9.19531C42.6172 9.03125 42.3711 8.82422 42.1758 8.57422C41.9805 8.31641 41.8828 8.01172 41.8828 7.66016C41.8828 7.49609 41.9141 7.34766 41.9766 7.21484C42.0469 7.07422 42.1367 6.95703 42.2461 6.86328C42.3555 6.76172 42.4844 6.6875 42.6328 6.64062C42.7812 6.58594 42.9336 6.55859 43.0898 6.55859C43.2305 6.55859 43.375 6.57812 43.5234 6.61719C43.6797 6.65625 43.8242 6.72656 43.957 6.82812C44.0977 6.92969 44.2227 7.0625 44.332 7.22656C44.4414 7.39062 44.5312 7.59375 44.6016 7.83594C44.7969 7.85938 44.9609 7.87891 45.0938 7.89453C45.2344 7.90234 45.3516 7.91016 45.4453 7.91797C45.5391 7.92578 45.6172 7.92969 45.6797 7.92969C45.7422 7.92969 45.8047 7.92969 45.8672 7.92969H47.1211C47.1914 7.92969 47.293 7.97266 47.4258 8.05859C47.5664 8.14453 47.7031 8.25781 47.8359 8.39844C47.9688 8.53125 48.0781 8.67578 48.1641 8.83203C48.2578 8.98828 48.293 9.13672 48.2695 9.27734C48.2695 9.32422 48.2422 9.4375 48.1875 9.61719C48.1328 9.79688 48.0664 10.0234 47.9883 10.2969C47.9102 10.5703 47.8242 10.8867 47.7305 11.2461C47.6367 11.5977 47.5508 11.9688 47.4727 12.3594C47.3945 12.75 47.3281 13.1562 47.2734 13.5781C47.2188 13.9922 47.1914 14.3984 47.1914 14.7969C47.1914 14.9609 47.2109 15.1211 47.25 15.2773C47.2891 15.4336 47.3477 15.5742 47.4258 15.6992C47.5039 15.8164 47.6016 15.9102 47.7188 15.9805C47.8438 16.0508 47.9883 16.0859 48.1523 16.0859C48.4258 16.0859 48.6602 16 48.8555 15.8281C49.0508 15.6562 49.2148 15.4414 49.3477 15.1836C49.4805 14.9258 49.5859 14.6484 49.6641 14.3516C49.75 14.0469 49.8203 13.7617 49.875 13.4961C49.9219 13.2461 50 13.0664 50.1094 12.957C50.2188 12.8398 50.332 12.7812 50.4492 12.7812C50.543 12.7812 50.6406 12.8125 50.7422 12.875C50.8438 12.9297 50.9336 13.0039 51.0117 13.0977C51.0977 13.1914 51.1641 13.2969 51.2109 13.4141C51.2656 13.5312 51.293 13.6484 51.293 13.7656C51.293 13.8047 51.2891 13.8359 51.2812 13.8594C51.2734 13.8828 51.2695 13.9062 51.2695 13.9297C51.1602 14.3281 51.0156 14.7461 50.8359 15.1836C50.6641 15.6211 50.4414 16.0234 50.168 16.3906C49.8945 16.7578 49.5664 17.0625 49.1836 17.3047C48.8008 17.5469 48.3516 17.668 47.8359 17.668ZM56.7773 16.0859C57.0195 16.0859 57.2266 16 57.3984 15.8281C57.5781 15.6562 57.7305 15.4414 57.8555 15.1836C57.9883 14.9258 58.0938 14.6484 58.1719 14.3516C58.2578 14.0469 58.3281 13.7617 58.3828 13.4961C58.4375 13.2461 58.5156 13.0664 58.6172 12.957C58.7266 12.8398 58.8438 12.7812 58.9688 12.7812C59.0625 12.7812 59.1562 12.8125 59.25 12.875C59.3516 12.9297 59.4414 13.0039 59.5195 13.0977C59.6055 13.1914 59.6719 13.2969 59.7188 13.4141C59.7734 13.5312 59.8008 13.6484 59.8008 13.7656C59.8008 13.7812 59.8008 13.8008 59.8008 13.8242C59.8008 13.8477 59.793 13.8828 59.7773 13.9297C59.6758 14.3281 59.5352 14.7461 59.3555 15.1836C59.1836 15.6211 58.9609 16.0234 58.6875 16.3906C58.4141 16.7578 58.082 17.0625 57.6914 17.3047C57.3086 17.5469 56.8594 17.668 56.3438 17.668C55.9219 17.668 55.5547 17.5781 55.2422 17.3984C54.9297 17.2188 54.6836 16.9805 54.5039 16.6836C54.2617 16.957 53.9688 17.1875 53.625 17.375C53.2891 17.5703 52.8945 17.668 52.4414 17.668C51.9727 17.668 51.5586 17.5742 51.1992 17.3867C50.8477 17.1992 50.5508 16.9453 50.3086 16.625C50.0664 16.2969 49.8828 15.9141 49.7578 15.4766C49.6406 15.0312 49.582 14.5547 49.582 14.0469C49.582 13.0469 49.7422 12.1484 50.0625 11.3516C50.3828 10.5547 50.8086 9.87891 51.3398 9.32422C51.8711 8.76172 52.4766 8.33203 53.1562 8.03516C53.8438 7.73828 54.5547 7.58984 55.2891 7.58984C55.6172 7.58984 55.8828 7.67969 56.0859 7.85938C56.2891 8.03906 56.3906 8.28516 56.3906 8.59766C56.3906 8.80078 56.3672 8.94531 56.3203 9.03125C56.2812 9.10938 56.2031 9.14844 56.0859 9.14844C55.9766 9.14844 55.8633 9.14062 55.7461 9.125C55.6289 9.10938 55.5078 9.10156 55.3828 9.10156C54.9297 9.10156 54.4688 9.20312 54 9.40625C53.5312 9.60156 53.1055 9.90625 52.7227 10.3203C52.3477 10.7266 52.0391 11.2461 51.7969 11.8789C51.5547 12.5039 51.4336 13.25 51.4336 14.1172C51.4336 14.75 51.5547 15.2383 51.7969 15.582C52.0391 15.918 52.3711 16.0859 52.793 16.0859C53.1211 16.0859 53.3945 15.9648 53.6133 15.7227C53.832 15.4727 54.0078 15.1797 54.1406 14.8438V11.1406C54.1406 11.0234 54.1328 10.9258 54.1172 10.8477C54.1094 10.7695 54.0977 10.7031 54.082 10.6484C54.0742 10.5938 54.0664 10.5469 54.0586 10.5078C54.0508 10.4609 54.0469 10.418 54.0469 10.3789C54.0469 10.2539 54.1055 10.1562 54.2227 10.0859C54.3477 10.0078 54.4961 9.96875 54.668 9.96875C55.0664 9.96875 55.3828 10.0742 55.6172 10.2852C55.8516 10.4883 55.9688 10.7344 55.9688 11.0234V14.9844C55.9688 15.1172 55.9844 15.25 56.0156 15.3828C56.0469 15.5078 56.0938 15.625 56.1562 15.7344C56.2188 15.8359 56.3008 15.9219 56.4023 15.9922C56.5117 16.0547 56.6367 16.0859 56.7773 16.0859ZM72.8203 13.9297C72.7109 14.3281 72.5664 14.7461 72.3867 15.1836C72.2148 15.6211 71.9922 16.0234 71.7188 16.3906C71.4453 16.7578 71.1172 17.0625 70.7344 17.3047C70.3516 17.5469 69.9023 17.668 69.3867 17.668C69.0664 17.668 68.7812 17.6055 68.5312 17.4805C68.2891 17.3633 68.0781 17.2031 67.8984 17C67.7266 16.7969 67.5938 16.5586 67.5 16.2852C67.4141 16.0117 67.3711 15.7227 67.3711 15.418V10.543C67.3711 10.3555 67.3672 10.1797 67.3594 10.0156C67.3516 9.85156 67.332 9.70703 67.3008 9.58203C67.2695 9.45703 67.2227 9.35938 67.1602 9.28906C67.1055 9.21094 67.0273 9.17188 66.9258 9.17188C66.7617 9.17188 66.5625 9.28906 66.3281 9.52344C66.0938 9.75781 65.8672 10.0625 65.6484 10.4375C65.4297 10.8125 65.2344 11.2383 65.0625 11.7148C64.8906 12.1836 64.7891 12.6562 64.7578 13.1328V16.6367C64.7578 16.7539 64.7539 16.875 64.7461 17C64.7461 17.1172 64.7227 17.2227 64.6758 17.3164C64.6367 17.418 64.5703 17.5 64.4766 17.5625C64.3906 17.6328 64.2617 17.668 64.0898 17.668C63.9727 17.668 63.8438 17.6523 63.7031 17.6211C63.5703 17.5977 63.4453 17.5469 63.3281 17.4688C63.2188 17.3984 63.125 17.293 63.0469 17.1523C62.9766 17.0195 62.9414 16.8398 62.9414 16.6133V10.543C62.9414 10.3555 62.9336 10.1797 62.918 10.0156C62.9102 9.85156 62.8906 9.70703 62.8594 9.58203C62.8281 9.45703 62.7812 9.35938 62.7188 9.28906C62.6641 9.21094 62.5859 9.17188 62.4844 9.17188C62.3203 9.17188 62.1211 9.28906 61.8867 9.52344C61.6602 9.75781 61.4336 10.0625 61.207 10.4375C60.9883 10.8125 60.793 11.2383 60.6211 11.7148C60.457 12.1836 60.3555 12.6562 60.3164 13.1328V16.6367C60.3164 16.7539 60.3125 16.875 60.3047 17C60.3047 17.1172 60.2812 17.2227 60.2344 17.3164C60.1953 17.418 60.1289 17.5 60.0352 17.5625C59.9492 17.6328 59.8203 17.668 59.6484 17.668C59.5312 17.668 59.4023 17.6523 59.2617 17.6211C59.1289 17.5977 59.0039 17.5469 58.8867 17.4688C58.7773 17.3984 58.6836 17.293 58.6055 17.1523C58.5352 17.0195 58.5 16.8398 58.5 16.6133V9.00781C58.5 8.78125 58.4805 8.61719 58.4414 8.51562C58.4102 8.41406 58.3945 8.32031 58.3945 8.23438C58.3945 8.11719 58.457 8.02344 58.582 7.95312C58.707 7.875 58.8555 7.83594 59.0273 7.83594C59.4258 7.83594 59.7383 7.94141 59.9648 8.15234C60.1992 8.35547 60.3164 8.60156 60.3164 8.89062V9.89844C60.4727 9.57031 60.6406 9.26562 60.8203 8.98438C61.0078 8.70312 61.207 8.46094 61.418 8.25781C61.6289 8.04688 61.8516 7.88281 62.0859 7.76562C62.3281 7.64844 62.5859 7.58984 62.8594 7.58984C63.2188 7.58984 63.5156 7.65625 63.75 7.78906C63.9922 7.92188 64.1836 8.09766 64.3242 8.31641C64.4727 8.53516 64.5781 8.78125 64.6406 9.05469C64.7031 9.32031 64.7422 9.58594 64.7578 9.85156C64.9062 9.53125 65.0703 9.23438 65.25 8.96094C65.4297 8.6875 65.625 8.44922 65.8359 8.24609C66.0469 8.04297 66.2695 7.88281 66.5039 7.76562C66.7461 7.64844 67.0039 7.58984 67.2773 7.58984C67.668 7.58984 67.9883 7.66406 68.2383 7.8125C68.4883 7.96094 68.6836 8.15234 68.8242 8.38672C68.9648 8.62109 69.0625 8.88281 69.1172 9.17188C69.1719 9.46094 69.1992 9.74219 69.1992 10.0156V14.9844C69.1992 15.0391 69.2031 15.1289 69.2109 15.2539C69.2188 15.3711 69.2422 15.4922 69.2812 15.6172C69.3203 15.7422 69.3789 15.8516 69.457 15.9453C69.543 16.0391 69.6641 16.0859 69.8203 16.0859C70.0625 16.0859 70.2695 16 70.4414 15.8281C70.6211 15.6562 70.7734 15.4414 70.8984 15.1836C71.0312 14.9258 71.1406 14.6484 71.2266 14.3516C71.3125 14.0469 71.3828 13.7617 71.4375 13.4961C71.4844 13.2461 71.5586 13.0664 71.6602 12.957C71.7695 12.8398 71.8867 12.7812 72.0117 12.7812C72.1055 12.7812 72.1992 12.8125 72.293 12.875C72.3945 12.9297 72.4844 13.0039 72.5625 13.0977C72.6484 13.1914 72.7148 13.2969 72.7617 13.4141C72.8164 13.5312 72.8438 13.6484 72.8438 13.7656C72.8438 13.7812 72.8438 13.8008 72.8438 13.8242C72.8438 13.8477 72.8359 13.8828 72.8203 13.9297Z" fill="#121212"/>
</svg>
